<svg width="2340" height="500" viewBox="0 0 2340 500" fill="none" xmlns="http://www.w3.org/2000/svg">
<path fill-rule="evenodd" clip-rule="evenodd" d="M218.464 13.9069C167.922 18.1349 135.127 25.3329 108.587 38.0239C99.7707 42.2389 88.2087 48.9589 86.4637 50.8819C86.1887 51.1849 84.3887 52.5229 82.4637 53.8539C72.4897 60.7509 51.6477 83.6289 46.0377 93.8369C44.9797 95.7619 43.8407 97.5619 43.5077 97.8369C42.8027 98.4169 37.5807 109.063 34.4317 116.337C26.4057 134.877 19.2587 167.319 14.8257 205.337C12.6407 224.074 12.3477 274.4 14.3227 291.837C16.0027 306.672 19.9457 331.86 22.3857 343.337C25.1047 356.125 32.5887 378.274 37.8487 389.101C47.5857 409.138 64.0417 430.648 77.4637 440.878C79.9387 442.765 82.5107 444.765 83.1787 445.323C83.8477 445.881 85.0437 446.879 85.8377 447.541C93.7237 454.12 116.819 465.733 131.964 470.735C166.369 482.099 225.757 488.501 272.837 485.921C340.364 482.221 381.966 470.984 413.305 447.981C423.659 440.381 423.067 440.886 432.464 431.629C442.203 422.036 444.406 419.334 452.257 407.359C471.512 377.987 480.764 346.175 486.582 289.337C488.179 273.735 488.181 227.945 486.586 211.337C485.094 195.807 481.107 169.013 478.327 155.837C475.929 144.471 470.002 124.097 467.947 120.157C467.138 118.606 466.474 116.869 466.47 116.298C466.463 115.106 461.195 104.84 456.591 97.0429C454.871 94.1309 453.464 91.3559 453.464 90.8759C453.464 90.3959 453.122 89.8539 452.704 89.6699C452.285 89.4869 448.937 85.4649 445.264 80.7329C429.164 59.9959 404.114 41.6999 378.964 32.3079C353.508 22.8009 328.705 18.1639 280.04 13.8139C267.452 12.6879 232.397 12.7409 218.464 13.9069ZM346.571 61.5669C356.513 66.2569 363.193 72.4249 369.183 82.4449C377.472 96.3089 382.359 116.566 379.503 125.219C374.951 139.011 357.519 143.385 346.619 133.47C343.245 130.401 341.9 127.336 340.115 118.652C337.201 104.479 332.108 97.4369 324.77 97.4369C315.338 97.4369 302.393 121.2 292.955 155.837C290.296 165.595 271.702 239.676 266.977 259.337C263.323 274.54 249.192 332.062 245.972 344.837C244.517 350.612 242.937 357.362 242.461 359.837C239.547 375.001 232.067 401.676 229.049 407.669C225.697 414.325 219.074 423.55 215.028 427.199C200.981 439.867 190.665 443.647 173.148 442.545C154.947 441.4 140.845 433.368 127.996 416.827C119.73 406.184 112.457 389.86 112.47 381.972C112.492 367.666 125.081 358.826 139.665 362.876C144.473 364.211 149.626 370.247 152.486 377.895C158.052 392.779 167.528 402.096 177.151 402.148C182.575 402.177 187.305 398.639 191.26 391.596C194.037 386.65 201.921 356.892 213.452 307.837C221.38 274.114 239.21 201.908 245.555 177.837C247.802 169.312 250.285 159.637 251.073 156.337C259.322 121.776 271.025 93.0359 282.428 79.3369C287.824 72.8539 295.889 65.8889 301.403 62.9499C310.555 58.0719 316.567 56.7809 328.071 57.2199C337.362 57.5759 338.857 57.9269 346.571 61.5669Z" fill="#6366f1"/>
<path d="M721.172 181.044H678.105V137.978H721.172V181.044ZM753.643 361H646.66V329.213H681.865V233.681H646.66V201.723H717.241V329.213H753.643V361ZM961.968 361H926.592V262.733C926.592 250.315 924.256 241.713 919.585 236.928C914.914 232.143 908.135 229.75 899.248 229.75C886.146 229.75 875.436 235.048 867.119 245.644C858.916 256.239 854.814 270.88 854.814 289.564V361H819.438V201.723H854.814V241.713C858.346 227.927 864.897 217.217 874.468 209.584C884.038 201.837 895.83 197.963 909.844 197.963C926.136 197.963 938.896 203.261 948.125 213.856C957.354 224.452 961.968 240.744 961.968 262.733V361ZM1163.12 310.243C1161.29 326.991 1154.68 340.321 1143.29 350.233C1132.01 360.032 1117.88 364.931 1100.91 364.931C1091.57 364.931 1083.02 363.393 1075.27 360.316C1067.53 357.24 1060.92 352.968 1055.45 347.499C1049.98 342.03 1045.71 335.479 1042.63 327.846C1039.67 320.098 1038.19 311.667 1038.19 302.553V233.681H1002.13V201.723H1038.19V137.978H1073.56V201.723H1140.39V233.681H1073.56V302.553C1073.56 312.807 1076.07 320.44 1081.08 325.453C1086.1 330.466 1092.71 332.973 1100.91 332.973C1110.93 332.973 1118.4 330.067 1123.3 324.257C1128.19 318.446 1131.1 311.439 1132.01 303.236L1163.12 310.243ZM1225.66 294.862C1227.37 305.8 1232.56 314.914 1241.22 322.206C1249.99 329.384 1261.72 332.973 1276.42 332.973C1287.93 332.973 1297.9 331.207 1306.33 327.675C1314.87 324.029 1322.22 319.244 1328.37 313.319L1346.49 338.271C1336.24 348.524 1325.35 355.531 1313.85 359.291C1302.45 363.051 1289.98 364.931 1276.42 364.931C1264.12 364.931 1252.67 362.88 1242.07 358.778C1231.47 354.677 1222.3 348.98 1214.56 341.688C1206.81 334.283 1200.71 325.51 1196.27 315.37C1191.94 305.23 1189.78 293.951 1189.78 281.532C1189.78 269.455 1191.77 258.347 1195.76 248.207C1199.86 237.953 1205.56 229.123 1212.85 221.718C1220.25 214.198 1229.08 208.388 1239.34 204.286C1249.59 200.071 1260.93 197.963 1273.34 197.963C1286.22 197.963 1297.9 200.185 1308.38 204.628C1318.86 208.957 1327.8 215.281 1335.21 223.598C1342.73 231.915 1348.6 242.112 1352.81 254.188C1357.03 266.151 1359.14 279.709 1359.14 294.862H1225.66ZM1319.15 263.759C1317.32 253.505 1312.02 245.302 1303.25 239.149C1294.48 232.883 1284.51 229.75 1273.34 229.75C1262.18 229.75 1252.15 232.883 1243.27 239.149C1234.38 245.302 1229.03 253.505 1227.2 263.759H1319.15ZM1314.7 151.649L1240.87 193.349L1225.66 169.936L1294.71 120.888L1314.7 151.649ZM1535.16 359.291C1535.16 370.229 1533.28 379.97 1529.52 388.515C1525.76 397.06 1520.46 404.294 1513.63 410.219C1506.91 416.143 1498.93 420.644 1489.7 423.72C1480.59 426.91 1470.39 428.505 1459.11 428.505C1431.43 428.505 1407.78 420.131 1388.19 403.383L1404.94 376.039C1421.23 390.053 1439.29 397.06 1459.11 397.06C1471.3 397.06 1481.1 394.04 1488.51 388.002C1496.03 382.077 1499.79 372.735 1499.79 359.975V342.885C1492.49 349.151 1485.49 353.822 1478.76 356.898C1472.04 359.861 1464.24 361.342 1455.35 361.342C1445.1 361.342 1435.58 359.177 1426.81 354.848C1418.04 350.518 1410.46 344.651 1404.08 337.245C1397.82 329.726 1392.86 321.01 1389.21 311.098C1385.68 301.186 1383.92 290.647 1383.92 279.481C1383.92 268.316 1385.68 257.777 1389.21 247.865C1392.86 237.839 1397.82 229.18 1404.08 221.889C1410.46 214.483 1418.04 208.673 1426.81 204.457C1435.58 200.128 1445.1 197.963 1455.35 197.963C1464.24 197.963 1472.16 199.501 1479.11 202.577C1486.06 205.539 1492.95 210.04 1499.79 216.078V201.723H1535.16V359.291ZM1499.79 244.105C1495.57 239.434 1490.1 235.902 1483.38 233.51C1476.77 231.003 1470.33 229.75 1464.07 229.75C1450.74 229.75 1439.91 234.421 1431.6 243.764C1423.39 253.106 1419.29 265.012 1419.29 279.481C1419.29 286.659 1420.37 293.324 1422.54 299.477C1424.82 305.515 1427.89 310.756 1431.77 315.199C1435.76 319.643 1440.48 323.174 1445.95 325.795C1451.53 328.301 1457.57 329.555 1464.07 329.555C1470.33 329.555 1476.77 328.301 1483.38 325.795C1490.1 323.174 1495.57 319.529 1499.79 314.857V244.105ZM1730.67 239.491C1726.45 237.44 1722.12 235.902 1717.68 234.877C1713.35 233.738 1708.34 233.168 1702.64 233.168C1694.78 233.168 1687.37 234.364 1680.42 236.757C1673.59 239.035 1667.66 242.51 1662.65 247.182C1657.64 251.853 1653.71 257.72 1650.86 264.784C1648.12 271.734 1646.76 279.994 1646.76 289.564V329.213H1682.48V361H1575.32V329.213H1611.38V233.681H1575.32V201.723H1646.76V241.713C1652.57 225.762 1661.11 214.483 1672.39 207.875C1683.79 201.267 1697.29 197.963 1712.9 197.963C1717.79 197.963 1722.92 198.476 1728.28 199.501C1733.63 200.526 1738.87 202.349 1744 204.97L1730.67 239.491ZM1765.7 315.199C1765.7 305.857 1768.21 297.711 1773.22 290.761C1778.24 283.697 1784.79 277.829 1792.88 273.158C1801.08 268.487 1810.42 265.012 1820.9 262.733C1831.5 260.341 1842.27 259.145 1853.2 259.145C1859.24 259.145 1864.43 259.258 1868.75 259.486C1873.08 259.714 1877.47 260.056 1881.91 260.512V254.188C1881.91 245.871 1878.67 239.662 1872.17 235.561C1865.79 231.459 1857.36 229.408 1846.88 229.408C1837.31 229.408 1827.57 230.775 1817.66 233.51C1807.74 236.13 1798.34 240.004 1789.46 245.131L1775.1 217.445C1785.58 211.407 1796.81 206.679 1808.77 203.261C1820.85 199.729 1833.55 197.963 1846.88 197.963C1855.54 197.963 1864.03 198.931 1872.34 200.868C1880.77 202.805 1888.29 205.995 1894.9 210.438C1901.62 214.882 1906.98 220.692 1910.97 227.87C1914.95 234.934 1916.95 243.707 1916.95 254.188V361H1881.91V337.587C1876.33 346.246 1868.07 352.968 1857.13 357.753C1846.31 362.538 1834.63 364.931 1822.1 364.931C1814.35 364.931 1807 363.848 1800.05 361.684C1793.22 359.633 1787.29 356.5 1782.28 352.284C1777.27 348.069 1773.22 342.885 1770.15 336.732C1767.18 330.466 1765.7 323.288 1765.7 315.199ZM1831.16 333.314C1838.11 333.314 1844.6 332.46 1850.64 330.751C1856.79 328.928 1862.2 326.479 1866.88 323.402C1871.55 320.212 1875.19 316.396 1877.81 311.952C1880.55 307.509 1881.91 302.61 1881.91 297.255V291.273C1876.33 290.362 1871.09 289.849 1866.19 289.735C1861.29 289.621 1856.96 289.564 1853.2 289.564C1835.89 289.564 1822.78 291.843 1813.9 296.4C1805.12 300.958 1800.74 306.597 1800.74 313.319C1800.74 326.649 1810.88 333.314 1831.16 333.314ZM2091.44 361H1984.45V329.213H2019.32V169.936H1984.45V137.978H2054.69V329.213H2091.44V361ZM2180.99 294.862C2182.7 305.8 2187.88 314.914 2196.54 322.206C2205.31 329.384 2217.05 332.973 2231.74 332.973C2243.25 332.973 2253.22 331.207 2261.65 327.675C2270.2 324.029 2277.54 319.244 2283.7 313.319L2301.81 338.271C2291.56 348.524 2280.68 355.531 2269.17 359.291C2257.78 363.051 2245.3 364.931 2231.74 364.931C2219.44 364.931 2207.99 362.88 2197.39 358.778C2186.8 354.677 2177.63 348.98 2169.88 341.688C2162.13 334.283 2156.04 325.51 2151.59 315.37C2147.26 305.23 2145.1 293.951 2145.1 281.532C2145.1 269.455 2147.09 258.347 2151.08 248.207C2155.18 237.953 2160.88 229.123 2168.17 221.718C2175.57 214.198 2184.4 208.388 2194.66 204.286C2204.91 200.071 2216.25 197.963 2228.67 197.963C2241.54 197.963 2253.22 200.185 2263.7 204.628C2274.18 208.957 2283.13 215.281 2290.53 223.598C2298.05 231.915 2303.92 242.112 2308.13 254.188C2312.35 266.151 2314.46 279.709 2314.46 294.862H2180.99ZM2274.47 263.759C2272.64 253.505 2267.35 245.302 2258.57 239.149C2249.8 232.883 2239.83 229.75 2228.67 229.75C2217.5 229.75 2207.48 232.883 2198.59 239.149C2189.7 245.302 2184.35 253.505 2182.52 263.759H2274.47Z" fill="#F9FAFB"/>
</svg>
