<svg width="500" height="500" viewBox="0 0 500 500" fill="none" xmlns="http://www.w3.org/2000/svg">
<path fill-rule="evenodd" clip-rule="evenodd" d="M218.464 13.9069C167.922 18.1349 135.127 25.3329 108.587 38.0239C99.7707 42.2389 88.2087 48.9589 86.4637 50.8819C86.1887 51.1849 84.3887 52.5229 82.4637 53.8539C72.4897 60.7509 51.6477 83.6289 46.0377 93.8369C44.9797 95.7619 43.8407 97.5619 43.5077 97.8369C42.8027 98.4169 37.5807 109.063 34.4317 116.337C26.4057 134.877 19.2587 167.319 14.8257 205.337C12.6407 224.074 12.3477 274.4 14.3227 291.837C16.0027 306.672 19.9457 331.86 22.3857 343.337C25.1047 356.125 32.5887 378.274 37.8487 389.101C47.5857 409.138 64.0417 430.648 77.4637 440.878C79.9387 442.765 82.5107 444.765 83.1787 445.323C83.8477 445.881 85.0437 446.879 85.8377 447.541C93.7237 454.12 116.819 465.733 131.964 470.735C166.369 482.099 225.757 488.501 272.837 485.921C340.364 482.221 381.966 470.984 413.305 447.981C423.659 440.381 423.067 440.886 432.464 431.629C442.203 422.036 444.406 419.334 452.257 407.359C471.512 377.987 480.764 346.175 486.582 289.337C488.179 273.735 488.181 227.945 486.586 211.337C485.094 195.807 481.107 169.013 478.327 155.837C475.929 144.471 470.002 124.097 467.947 120.157C467.138 118.606 466.474 116.869 466.47 116.298C466.463 115.106 461.195 104.84 456.591 97.0429C454.871 94.1309 453.464 91.3559 453.464 90.8759C453.464 90.3959 453.122 89.8539 452.704 89.6699C452.285 89.4869 448.937 85.4649 445.264 80.7329C429.164 59.9959 404.114 41.6999 378.964 32.3079C353.508 22.8009 328.705 18.1639 280.04 13.8139C267.452 12.6879 232.397 12.7409 218.464 13.9069ZM346.571 61.5669C356.513 66.2569 363.193 72.4249 369.183 82.4449C377.472 96.3089 382.359 116.566 379.503 125.219C374.951 139.011 357.519 143.385 346.619 133.47C343.245 130.401 341.9 127.336 340.115 118.652C337.201 104.479 332.108 97.4369 324.77 97.4369C315.338 97.4369 302.393 121.2 292.955 155.837C290.296 165.595 271.702 239.676 266.977 259.337C263.323 274.54 249.192 332.062 245.972 344.837C244.517 350.612 242.937 357.362 242.461 359.837C239.547 375.001 232.067 401.676 229.049 407.669C225.697 414.325 219.074 423.55 215.028 427.199C200.981 439.867 190.665 443.647 173.148 442.545C154.947 441.4 140.845 433.368 127.996 416.827C119.73 406.184 112.457 389.86 112.47 381.972C112.492 367.666 125.081 358.826 139.665 362.876C144.473 364.211 149.626 370.247 152.486 377.895C158.052 392.779 167.528 402.096 177.151 402.148C182.575 402.177 187.305 398.639 191.26 391.596C194.037 386.65 201.921 356.892 213.452 307.837C221.38 274.114 239.21 201.908 245.555 177.837C247.802 169.312 250.285 159.637 251.073 156.337C259.322 121.776 271.025 93.0359 282.428 79.3369C287.824 72.8539 295.889 65.8889 301.403 62.9499C310.555 58.0719 316.567 56.7809 328.071 57.2199C337.362 57.5759 338.857 57.9269 346.571 61.5669Z" fill="#6366f1"/>
</svg>
